<svg width="17" height="17" viewBox="0 0 17 17" fill="none" xmlns="http://www.w3.org/2000/svg">
<path id="Vector" d="M7.60326 0.630218C7.97008 -0.113028 9.02992 -0.113028 9.39674 0.630218L11.2063 4.29671C11.3519 4.59185 11.6335 4.79642 11.9592 4.84375L16.0054 5.4317C16.8256 5.55088 17.1531 6.55885 16.5596 7.13739L13.6318 9.99135C13.3961 10.2211 13.2885 10.5521 13.3442 10.8765L14.0353 14.9063C14.1754 15.7232 13.318 16.3462 12.5844 15.9605L8.96534 14.0579C8.67402 13.9047 8.32598 13.9047 8.03466 14.0579L4.41562 15.9605C3.68199 16.3462 2.82456 15.7232 2.96467 14.9063L3.65585 10.8765C3.71148 10.5521 3.60393 10.2211 3.36825 9.99135L0.440385 7.13739C-0.153133 6.55885 0.174378 5.55088 0.994598 5.4317L5.04081 4.84375C5.36652 4.79642 5.64808 4.59185 5.79374 4.29671L7.60326 0.630218Z" fill="#FFD600"/>
</svg>
