<svg width="18" height="19" viewBox="0 0 18 19" fill="none" xmlns="http://www.w3.org/2000/svg">
<g id="help">
<mask id="mask0_926_1814" style="mask-type:alpha" maskUnits="userSpaceOnUse" x="0" y="0" width="18" height="20">
<path id="Bounding box" d="M0 0.5H18V19.5588H0V0.5Z" fill="#D9D9D9"/>
</mask>
<g mask="url(#mask0_926_1814)">
<path id="help_2" d="M9.40147 14.7063C9.67941 14.7063 9.91434 14.6103 10.1063 14.4184C10.2982 14.2265 10.3941 13.9915 10.3941 13.7136C10.3941 13.4357 10.2982 13.2007 10.1063 13.0088C9.91434 12.8169 9.67941 12.721 9.40147 12.721C9.12353 12.721 8.8886 12.8169 8.69669 13.0088C8.50478 13.2007 8.40882 13.4357 8.40882 13.7136C8.40882 13.9915 8.50478 14.2265 8.69669 14.4184C8.8886 14.6103 9.12353 14.7063 9.40147 14.7063ZM8.68677 11.6489H10.1559C10.1559 11.2121 10.2055 10.868 10.3048 10.6165C10.404 10.3651 10.6853 10.021 11.1485 9.58419C11.4926 9.24007 11.764 8.9125 11.9625 8.60147C12.161 8.29044 12.2603 7.91654 12.2603 7.47978C12.2603 6.7386 11.989 6.16948 11.4463 5.77243C10.9037 5.37537 10.2618 5.17684 9.52059 5.17684C8.76618 5.17684 8.15404 5.37537 7.68419 5.77243C7.21434 6.16948 6.88677 6.64596 6.70147 7.20184L8.01177 7.71801C8.07794 7.47978 8.22684 7.22169 8.45846 6.94375C8.69007 6.66581 9.04412 6.52684 9.52059 6.52684C9.94412 6.52684 10.2618 6.64265 10.4735 6.87426C10.6853 7.10588 10.7912 7.36066 10.7912 7.6386C10.7912 7.90331 10.7118 8.15147 10.5529 8.38309C10.3941 8.61471 10.1956 8.82978 9.95735 9.02831C9.375 9.54449 9.01765 9.93493 8.88529 10.1996C8.75294 10.4643 8.68677 10.9474 8.68677 11.6489ZM9.44118 17.8827C8.34265 17.8827 7.31029 17.6743 6.34412 17.2574C5.37794 16.8404 4.5375 16.2746 3.82279 15.5599C3.10809 14.8452 2.54228 14.0048 2.12537 13.0386C1.70846 12.0724 1.5 11.0401 1.5 9.94154C1.5 8.84301 1.70846 7.81066 2.12537 6.84448C2.54228 5.87831 3.10809 5.03787 3.82279 4.32316C4.5375 3.60845 5.37794 3.04265 6.34412 2.62573C7.31029 2.20882 8.34265 2.00037 9.44118 2.00037C10.5397 2.00037 11.5721 2.20882 12.5382 2.62573C13.5044 3.04265 14.3449 3.60845 15.0596 4.32316C15.7743 5.03787 16.3401 5.87831 16.757 6.84448C17.1739 7.81066 17.3824 8.84301 17.3824 9.94154C17.3824 11.0401 17.1739 12.0724 16.757 13.0386C16.3401 14.0048 15.7743 14.8452 15.0596 15.5599C14.3449 16.2746 13.5044 16.8404 12.5382 17.2574C11.5721 17.6743 10.5397 17.8827 9.44118 17.8827ZM9.44118 16.2945C11.2147 16.2945 12.7169 15.679 13.9478 14.4482C15.1787 13.2173 15.7941 11.7151 15.7941 9.94154C15.7941 8.16801 15.1787 6.66581 13.9478 5.43493C12.7169 4.20404 11.2147 3.5886 9.44118 3.5886C7.66765 3.5886 6.16544 4.20404 4.93456 5.43493C3.70368 6.66581 3.08824 8.16801 3.08824 9.94154C3.08824 11.7151 3.70368 13.2173 4.93456 14.4482C6.16544 15.679 7.66765 16.2945 9.44118 16.2945Z" fill="#6F6969"/>
</g>
</g>
</svg>
