<svg width="24" height="24" viewBox="0 0 24 24" fill="none" xmlns="http://www.w3.org/2000/svg">
<g id="Toggle No">
<path id="Ellipse 10" d="M24 12C24 18.6274 18.6274 24 12 24C5.37258 24 0 18.6274 0 12C0 5.37258 5.37258 0 12 0C18.6274 0 24 5.37258 24 12Z" fill="white"/>
<path id="Ellipse 10 (Stroke)" fill-rule="evenodd" clip-rule="evenodd" d="M12 21.6471C17.3279 21.6471 21.6471 17.3279 21.6471 12C21.6471 6.67208 17.3279 2.35294 12 2.35294C6.67208 2.35294 2.35294 6.67208 2.35294 12C2.35294 17.3279 6.67208 21.6471 12 21.6471ZM12 24C18.6274 24 24 18.6274 24 12C24 5.37258 18.6274 0 12 0C5.37258 0 0 5.37258 0 12C0 18.6274 5.37258 24 12 24Z" fill="#E6E6E6"/>
<path id="Ellipse 11" d="M17.4118 12C17.4118 14.9889 14.9889 17.4118 12 17.4118C9.01119 17.4118 6.58826 14.9889 6.58826 12C6.58826 9.01119 9.01119 6.58826 12 6.58826C14.9889 6.58826 17.4118 9.01119 17.4118 12Z" fill="white"/>
</g>
</svg>
